<?xml version="1.0" encoding="utf-8"?>
<!-- Generator: Adobe Illustrator 24.2.3, SVG Export Plug-In . SVG Version: 6.00 Build 0)  -->
<svg version="1.1" id="Capa_1" xmlns="http://www.w3.org/2000/svg" xmlns:xlink="http://www.w3.org/1999/xlink" x="0px" y="0px"
	 viewBox="0 0 512 512" style="enable-background:new 0 0 512 512;" xml:space="preserve">
<style type="text/css">
	.st0{fill:#49C9FF;}
	.st1{fill:#7DD9FF;}
	.st2{fill:#FFA754;}
	.st3{fill:#FFD13F;}
	.st4{fill:#E18F4E;}
	.st5{fill:#A45E43;}
	.st6{fill:#C27749;}
	.st7{fill:#FFB4A9;}
	.st8{fill:#FFD9D4;}
	.st9{fill:#85453D;}
	.st10{fill:#6B9627;}
	.st11{fill:#88BF40;}
	.st12{fill:#40211D;stroke:#000000;stroke-width:3;stroke-miterlimit:10;}
	.st13{fill:#60312C;stroke:#000000;stroke-width:3;stroke-miterlimit:10;}
	.st14{fill:#40211D;}
	.st15{fill:#60312C;}
	.st16{fill:none;stroke:#000000;stroke-width:3;stroke-miterlimit:10;}
</style>
<g>
	<path class="st0" d="M428,259.7v75c24.9,0,45-20.1,45-45L428,259.7z"/>
	<path class="st1" d="M443,289.7v-15h-90l30,60l22.5,15l22.5-15C436.3,334.7,443,314.6,443,289.7z"/>
	<path class="st2" d="M453,194.7h-30l20,95h30v-75C473,203.7,464,194.7,453,194.7z"/>
	<path class="st3" d="M423,194.7h-20c-11,0-20,9-20,20v45l-30,30h90v-75C443,203.7,434,194.7,423,194.7z"/>
	<path class="st4" d="M353,259.7l-30,52.5l60-22.5v-30H353z"/>
	<path class="st2" d="M271,259.7v30l82,30v-60H271z"/>
	<path class="st5" d="M383,334.7h-30l-30-22.5l30-22.5h30V334.7z"/>
	<path class="st6" d="M271,289.7h82v45h-82V289.7z"/>
	<path class="st4" d="M458.2,330.4l-18.7,17.2l18.7,17.2h28.1v-34.4H458.2z"/>
	<path class="st2" d="M379.2,330.4h80.3v34.4h-80.3V330.4z"/>
	<path class="st7" d="M462.3,90.6c0,0-34.3,0-34.3,0v74.2c24.9,0,45-20.1,45-45C473,108.6,469,98.4,462.3,90.6z"/>
	<path class="st8" d="M441.9,102.8l-48.1-12.2c-6.7,7.8-10.7,18-10.7,29.2c0,24.9,20.1,45,45,45c8.3,0,15-20.1,15-45
		C443,113.7,442.6,108,441.9,102.8L441.9,102.8z"/>
	<path class="st9" d="M428,74.7l13.9,28c7.5-2.2,14.5-6.3,20.4-12.2C454,80.9,441.7,74.7,428,74.7z"/>
	<path class="st5" d="M428,74.7c-13.7,0-26,6.1-34.3,15.8c13,13,31.6,17.1,48.1,12.2C439.7,86.3,434.3,74.7,428,74.7L428,74.7z"/>
	<path class="st10" d="M189.5,194.7h-30l5,140c24.9,0,45-20.1,45-45v-75C209.5,203.7,200.5,194.7,189.5,194.7z"/>
	<path class="st11" d="M159.5,194.7h-20c-11,0-20,9-20,20v45l-30,30l30,45l22.5,15l22.5-15c8.3,0,15-20.1,15-45v-75
		C179.5,203.7,170.5,194.7,159.5,194.7z"/>
	<path class="st4" d="M89.5,259.7l-30,52.5l60-22.5v-30H89.5z"/>
	<path class="st2" d="M7.5,259.7v30l82,30v-60H7.5z"/>
	<path class="st5" d="M119.5,334.7h-30l-30-22.5l30-22.5h30V334.7z"/>
	<path class="st6" d="M7.5,289.7h82v45h-82V289.7z"/>
	<path class="st4" d="M194.7,330.4L176,347.6l18.7,17.2h28.1v-34.4H194.7z"/>
	<path class="st2" d="M116.6,330.4H196v34.4h-79.4V330.4z"/>
	<path class="st12" d="M218.9,143.6l-9.4-23.9h25.7c3.4,0,6.9,1,9.9,3c8,5.4,10.1,16.3,4.6,24.3s-16.3,10.1-24.3,4.6
		C222.4,149.7,220.2,146.8,218.9,143.6L218.9,143.6z"/>
	<path class="st13" d="M110.1,143.6l9.4-23.9H93.8c-3.4,0-6.9,1-9.9,3c-8,5.4-10.1,16.3-4.6,24.3s16.3,10.1,24.3,4.6
		C106.6,149.7,108.8,146.8,110.1,143.6L110.1,143.6z"/>
	<path class="st6" d="M178.6,104.3l-14.1,60.5c24.9,0,45-20.1,45-45L178.6,104.3z"/>
	<path class="st4" d="M179.5,119.7c0-5.4-0.3-10.6-0.9-15.5l-41.1-20.5c-10.9,8.2-18,21.3-18,36c0,24.9,20.1,45,45,45
		C172.8,164.7,179.5,144.6,179.5,119.7z"/>
	<path class="st14" d="M164.5,74.7l14.9,39.8c9.4,3.3,19.5,5.2,30.1,5.2C209.5,94.9,189.4,74.7,164.5,74.7z"/>
	<path class="st15" d="M164.5,74.7c-10.1,0-19.5,3.3-27,9c10.5,14,25.1,24.9,41.9,30.8C178.5,92.2,172.2,74.7,164.5,74.7z"/>
	<g>
		<circle class="st16" cx="428.4" cy="119.2" r="44.2"/>
		<circle class="st16" cx="164.5" cy="119.2" r="44.2"/>
		<polyline class="st16" points="119.5,259.7 7.5,259.7 7.5,436.4 		"/>
		<line class="st16" x1="119.1" y1="288.5" x2="7.5" y2="288.5"/>
		<line class="st16" x1="116.6" y1="334.7" x2="7.5" y2="334.7"/>
		<path class="st16" d="M42,137.2c0,0,4.8,77.5,77.5,77.5"/>
		<path class="st16" d="M119.1,213.7l0.5,116.7h53c20.4,0,36.9-16.5,36.9-36.9v-80.1c0-10.2-8.2-18.4-18.4-18.4h-53
			C127.8,195.1,119.3,203.3,119.1,213.7z"/>
		<polygon class="st16" points="116.1,330.4 222.8,330.4 222.8,364.7 115.2,364.7 		"/>
		<path class="st16" d="M120.3,364.7v71.6h123.2l-15.6-63.7c-1.1-4.7-5.3-8-10.1-8H120.3z"/>
		<path class="st16" d="M79,364.7v40c0,11.5-6.6,21.9-16.9,26.9l-13.7,6.6"/>
		<polyline class="st16" points="383,259.7 271,259.7 271,436.4 		"/>
		<line class="st16" x1="382.6" y1="288.5" x2="271" y2="288.5"/>
		<line class="st16" x1="380.1" y1="334.7" x2="271" y2="334.7"/>
		<path class="st16" d="M305.5,137.2c0,0,4.8,77.5,77.5,77.5"/>
		<path class="st16" d="M382.6,213.7l0.5,116.7h53c20.4,0,36.9-16.5,36.9-36.9v-80.1c0-10.2-8.2-18.4-18.4-18.4h-53
			C391.3,195.1,382.8,203.3,382.6,213.7z"/>
		<polygon class="st16" points="379.6,330.4 486.3,330.4 486.3,364.7 378.7,364.7 		"/>
		<path class="st16" d="M383.8,364.7v71.6H507l-15.6-63.7c-1.1-4.7-5.3-8-10.1-8H383.8z"/>
		<path class="st16" d="M342.5,364.7v40c0,11.5-6.6,21.9-16.9,26.9l-13.7,6.6"/>
	</g>
</g>
</svg>
