<?xml version="1.0" encoding="utf-8"?>
<!-- Generator: Adobe Illustrator 24.2.3, SVG Export Plug-In . SVG Version: 6.00 Build 0)  -->
<svg version="1.1" id="Layer_1" xmlns="http://www.w3.org/2000/svg" xmlns:xlink="http://www.w3.org/1999/xlink" x="0px" y="0px"
	 viewBox="0 0 512 512" style="enable-background:new 0 0 512 512;" xml:space="preserve">
<style type="text/css">
	.st0{fill:#FFFFFF;}
</style>
<g id="Communicate">
	<path class="st0" d="M215.2,170.5l-39.6-39.6c-3.1-3.1-8.2-3.1-11.3,0l-17,17c-9.4,9.4-24.6,9.4-33.9,0c0,0,0,0,0,0l-1.9-1.9
		c-9.4-9.4-9.4-24.6,0-33.9c0,0,0,0,0,0l17-17c3.1-3.1,3.1-8.2,0-11.3L88.8,44.1c-3.1-3.1-8.2-3.1-11.3,0l-17,17
		c-28.1,28.1-28.1,73.7,0,101.8l35.9,35.9c28.1,28.1,73.7,28.1,101.8,0l17-17C218.3,178.7,218.3,173.6,215.2,170.5z M170,147.9
		l28.3,28.3l-5.7,5.7l-28.3-28.3L170,147.9z M83.2,61.1l28.3,28.3l-5.7,5.7L77.5,66.7L83.2,61.1z M107.7,187.5l-35.9-35.9
		c-19.6-19.7-21.9-50.8-5.3-73.1L95,106.9c-10.5,15.9-8.3,36.9,5.1,50.3l1.9,1.9c13.5,13.4,34.5,15.5,50.3,5.1l28.4,28.4
		C158.5,209.4,127.4,207.1,107.7,187.5L107.7,187.5z"/>
	<path class="st0" d="M216,256H40c-13.3,0-24-10.7-24-24l0,0V40c0-13.3,10.7-24,24-24h176c13.3,0,24,10.7,24,24v192
		C240,245.3,229.3,256,216,256L216,256z M40,32c-4.4,0-8,3.6-8,8v192c0,4.4,3.6,8,8,8h176c4.4,0,8-3.6,8-8V40c0-4.4-3.6-8-8-8H40z"
		/>
	<path class="st0" d="M216,496H40c-13.3,0-24-10.7-24-24V296c0-13.3,10.7-24,24-24h176c13.3,0,24,10.7,24,24v176
		C240,485.3,229.3,496,216,496z M40,288c-4.4,0-8,3.6-8,8v176c0,4.4,3.6,8,8,8h176c4.4,0,8-3.6,8-8V296c0-4.4-3.6-8-8-8H40z"/>
	<path class="st0" d="M200,328H56c-4.4,0-8,3.6-8,8v96c0,4.4,3.6,8,8,8h144c4.4,0,8-3.6,8-8v-96C208,331.6,204.4,328,200,328z
		 M128,389.2L77.1,344h101.9L128,389.2z M98.1,384.1L64,414.2v-60.4L98.1,384.1z M110.2,394.8l7.2,6.4c6.1,5.5,15.3,5.5,21.4,0
		l7.2-6.4l32.9,29.2H77.1L110.2,394.8z M158,384.1l34-30.3v60.4L158,384.1z"/>
	<path class="st0" d="M472,16H296c-13.3,0-24,10.7-24,24v192c0,13.3,10.7,24,24,24l0,0h40v100.3l-9.4-19.8
		c-1.7-5.9-5.7-10.8-11-13.8c-5.5-3.2-12.1-4.1-18.2-2.4l-7.4,2c-8.5,2.3-13.6,11.1-11.3,19.6c0.1,0.3,0.2,0.6,0.3,0.9l33.4,97
		c0.3,0.9,0.8,1.8,1.5,2.6l21.7,25.6l0.4,20.3c0.1,4.4,3.6,7.8,8,7.8h112c4.4,0,8-3.6,8-8v-21.6l14.7-22c0.9-1.3,1.3-2.8,1.3-4.4
		V336c0-6.3-2.5-12.4-7-16.9c-6.8-6.7-16.9-8.8-25.8-5.5c-1.1-4-3.2-7.7-6.2-10.5c-6.8-6.7-16.9-8.8-25.8-5.5
		c-1.1-4-3.2-7.7-6.2-10.5c-6.6-6.5-16.3-8.7-25-5.8V256h88c13.3,0,24-10.7,24-24l0,0V40C496,26.7,485.3,16,472,16z M392,296
		c2.2,0,4.2,0.9,5.7,2.4c1.5,1.5,2.3,3.5,2.3,5.6v56c0,4.4,3.6,8,8,8s8-3.6,8-8v-40c0-4.4,3.6-8,8-8c2.2,0,4.2,0.9,5.7,2.4
		c1.5,1.5,2.3,3.5,2.3,5.6v40c0,4.4,3.6,8,8,8s8-3.6,8-8v-24c0-4.4,3.6-8,8-8c2.2,0,4.2,0.9,5.7,2.4c1.5,1.5,2.3,3.5,2.3,5.6v101.6
		l-14.7,22c-0.9,1.3-1.3,2.8-1.3,4.4v16h-96.2l-0.3-15.4c0-1.8-0.7-3.6-1.9-5L327.1,433l-32.8-95.4l7.3-2c2.1-0.6,4.3-0.3,6.1,0.8
		c1.8,1,3.2,2.8,3.7,4.8c0.1,0.5,25.4,54.1,25.4,54.1c1.9,4,6.7,5.7,10.7,3.8c2.8-1.3,4.5-4.1,4.6-7.1V232.9
		c-0.2-4.4,2.9-8.2,7.3-8.9c2.4-0.2,4.8,0.6,6.4,2.4c1.5,1.5,2.3,3.5,2.3,5.6v128c0,4.4,3.6,8,8,8s8-3.6,8-8v-56
		C384,299.6,387.6,296,392,296z M480,232c0,4.4-3.6,8-8,8h-88v-8c0-6.3-2.5-12.4-7-16.9c-5-5.1-12-7.7-19.1-7
		c-12.6,1.4-22.1,12.1-21.9,24.8v7.1h-40c-4.4,0-8-3.6-8-8V40c0-4.4,3.6-8,8-8h176c4.4,0,8,3.6,8,8V232z"/>
	<path class="st0" d="M384,64c-35.3,0-64,28.7-64,64s28.7,64,64,64h32c4.4,0,8-3.6,8-8s-3.6-8-8-8h-32c-26.5,0-48-21.5-48-48
		s21.5-48,48-48s48,21.5,48,48v8c0,4.4-3.6,8-8,8s-8-3.6-8-8v-8c0.1-17.8-14.2-32.4-32-32.5c-17.8-0.1-32.4,14.2-32.5,32
		s14.2,32.4,32,32.5c8.2,0.1,16.2-3,22.2-8.6c8.4,10.2,23.5,11.6,33.6,3.1c5.5-4.6,8.7-11.3,8.6-18.5v-8C448,92.7,419.3,64,384,64z
		 M384,144c-8.8,0-16-7.2-16-16c0-8.8,7.2-16,16-16s16,7.2,16,16C400,136.8,392.8,144,384,144z"/>
</g>
</svg>
