<?xml version="1.0" encoding="utf-8"?>
<!-- Generator: Adobe Illustrator 24.2.3, SVG Export Plug-In . SVG Version: 6.00 Build 0)  -->
<svg version="1.1" id="Capa_1" xmlns="http://www.w3.org/2000/svg" xmlns:xlink="http://www.w3.org/1999/xlink" x="0px" y="0px"
	 viewBox="0 0 512 512" style="enable-background:new 0 0 512 512;" xml:space="preserve">
<style type="text/css">
	.st0{fill:#FFFFFF;}
</style>
<g>
	<path class="st0" d="M270.3,130.5c-5.2,1.9-7.9,7.6-6,12.8c1.9,5.2,7.6,7.9,12.8,6c5.2-1.9,7.9-7.6,6-12.8S275.5,128.6,270.3,130.5
		z"/>
	<path class="st0" d="M256.6,92.9c-25.9,9.4-39.3,38.2-29.9,64.1c9.4,25.9,38.2,39.3,64.1,29.9c26-9.5,39.3-38.1,29.9-64.1
		C311.3,96.9,282.5,83.5,256.6,92.9L256.6,92.9z M284,168.1c-15.5,5.7-32.8-2.4-38.5-17.9c-5.7-15.5,2.4-32.8,17.9-38.5
		c15.5-5.7,32.8,2.4,38.5,17.9C307.6,145.2,299.6,162.4,284,168.1L284,168.1z"/>
	<path class="st0" d="M195.1,157.9l-37.6,13.7c-5.2,1.9-7.9,7.6-6,12.8c1.9,5.2,7.6,7.9,12.8,6l37.6-13.7c5.2-1.9,7.9-7.6,6-12.8
		C206,158.7,200.3,156,195.1,157.9L195.1,157.9z"/>
	<path class="st0" d="M383.1,89.5l-37.6,13.7c-5.2,1.9-7.9,7.6-6,12.8c1.9,5.2,7.6,7.9,12.8,6l37.6-13.7c5.2-1.9,7.9-7.6,6-12.8
		C394,90.3,388.3,87.6,383.1,89.5z"/>
	<path class="st0" d="M236,469h40c5.5,0,10-4.5,10-10v-8l7,4c2.3,1.3,5,1.7,7.6,1s4.7-2.4,6.1-4.7l20-34.6
		c2.8-4.8,1.1-10.9-3.7-13.7l-7-4l7-4c4.8-2.8,6.4-8.9,3.7-13.7l-20-34.6c-1.3-2.3-3.5-4-6.1-4.7c-2.6-0.7-5.3-0.3-7.6,1l-7,4v-8
		c0-5.5-4.5-10-10-10h-40c-5.5,0-10,4.5-10,10v8l-7-4c-2.3-1.3-5-1.7-7.6-1c-2.6,0.7-4.7,2.4-6.1,4.7l-20,34.6
		c-2.8,4.8-1.1,10.9,3.7,13.7l7,4l-7,4c-4.8,2.8-6.4,8.9-3.7,13.7l20,34.6c1.3,2.3,3.5,4,6.1,4.7c2.6,0.7,5.3,0.3,7.6-1l7-4v8
		C226,464.5,230.5,469,236,469z M217.7,432.7l-10-17.3l13.3-7.7c3.1-1.8,5-5.1,5-8.7s-1.9-6.9-5-8.7l-13.3-7.7l10-17.3L231,373
		c3.1,1.8,6.9,1.8,10,0s5-5.1,5-8.7V349h20v15.4c0,3.6,1.9,6.9,5,8.7c3.1,1.8,6.9,1.8,10,0l13.3-7.7l10,17.3l-13.3,7.7
		c-3.1,1.8-5,5.1-5,8.7s1.9,6.9,5,8.7l13.3,7.7l-10,17.3L281,425c-3.1-1.8-6.9-1.8-10,0s-5,5.1-5,8.7V449h-20v-15.4
		c0-3.6-1.9-6.9-5-8.7c-3.1-1.8-6.9-1.8-10,0L217.7,432.7z"/>
	<circle class="st0" cx="256" cy="502" r="10"/>
	<path class="st0" d="M502,140h-47.3c-6.3-17.3-42.9-117.9-48.6-133.4c-1.9-5.2-7.6-7.9-12.8-6c-5.9,2.1-287.1,104.5-300.7,109.4
		c-2.5,0.9-4.5,2.8-5.6,5.2c-1.1,2.4-1.2,5.2-0.3,7.6l6.2,17.1H10c-5.5,0-10,4.5-10,10v352c0,5.5,4.5,10,10,10h201
		c5.5,0,10-4.5,10-10s-4.5-10-10-10H20V306h472v186H301c-5.5,0-10,4.5-10,10s4.5,10,10,10h201c5.5,0,10-4.5,10-10V150
		C512,144.5,507.5,140,502,140L502,140z M143.2,220l-21.1-57.9c17-10.4,26.3-30.2,23.3-50l208.6-75.9c10.2,16.6,29.7,26.3,50,23.3
		l21.2,58.3c-17,10.4-26.2,30.2-23.3,50L258.3,220H143.2z M421.4,160.6c-0.1-9,4-17.7,10.9-23.4l6.3,17.2L421.4,160.6z M397,40
		c-9,0.1-17.7-4-23.4-10.9l17.2-6.3L397,40z M126,119.2c0.1,8.9-3.9,17.7-10.9,23.4l-6.3-17.2L126,119.2z M20,286V160h80.1l21.8,60
		H96c-5.5,0-10,4.5-10,10s4.5,10,10,10h320c5.5,0,10-4.5,10-10s-4.5-10-10-10h-99.2c33.5-12.2,126-45.9,138.1-50.3
		c4-1.5,6.7-5.3,6.6-9.7H492v126H20z"/>
</g>
</svg>
