<?xml version="1.0" encoding="utf-8"?>
<!-- Generator: Adobe Illustrator 24.2.3, SVG Export Plug-In . SVG Version: 6.00 Build 0)  -->
<svg version="1.1" id="_x33_0" xmlns="http://www.w3.org/2000/svg" xmlns:xlink="http://www.w3.org/1999/xlink" x="0px" y="0px"
	 viewBox="0 0 512 512" style="enable-background:new 0 0 512 512;" xml:space="preserve">
<style type="text/css">
	.st0{fill:#E6E9ED;stroke:#000000;stroke-width:3;stroke-miterlimit:10;}
	.st1{fill:#FFD13F;stroke:#000000;stroke-width:3;stroke-miterlimit:10;}
	.st2{fill:#0093BA;stroke:#000000;stroke-width:3;stroke-miterlimit:10;}
	.st3{fill:#F9628D;stroke:#000000;stroke-width:3;stroke-miterlimit:10;}
	.st4{fill:#3B465C;stroke:#000000;stroke-width:3;stroke-miterlimit:10;}
	.st5{fill:#F0D0B4;stroke:#000000;stroke-width:3;stroke-miterlimit:10;}
	.st6{fill:#FB4A75;stroke:#000000;stroke-width:3;stroke-miterlimit:10;}
	.st7{fill:#CF9E76;stroke:#000000;stroke-width:3;stroke-miterlimit:10;}
	.st8{fill:#CCD1D9;stroke:#000000;stroke-width:3;stroke-miterlimit:10;}
	.st9{fill:#F0D0B4;}
	.st10{fill:none;stroke:#000000;stroke-width:3;stroke-miterlimit:10;}
	.st11{fill:none;stroke:#000000;stroke-width:5;stroke-miterlimit:10;}
</style>
<g>
	<g>
		<g>
			<path class="st0" d="M480,388v36v56h-96v-48v-48h96V388z"/>
		</g>
		<g>
			<path class="st1" d="M145.4,320.2c22.6,24,53,40.6,87,45.9c7.7,1.2,15.5,1.8,23.5,1.8c8,0,15.8-0.6,23.5-1.8
				c34.1-5.3,64.4-21.9,87-45.9C392.2,293.1,408,256.3,408,216c0-47.5-21.8-90-56-117.8h-0.1c0.1-0.6,0.1-1.4,0.1-2.1
				c0-16.6-5-31.9-13.6-44.6C398.6,81.7,440,144,440,216c0,92.6-68.4,169.2-157.4,182c-8.6,1.4-17.5,2-26.6,2s-17.9-0.6-26.6-1.9
				c-31.8-4.6-61-17.4-85.4-36.1v-34c0-2.2-0.9-4.2-2.3-5.7l3-2.9C145,319.8,145.2,320,145.4,320.2L145.4,320.2z"/>
		</g>
		<g>
			<path class="st2" d="M352,98.2c34.2,27.8,56,70.3,56,117.8c0,40.3-15.8,77.1-41.4,104.2c-6.2-33.1-30.6-60.1-63.1-69.3
				c-5-1.4-10.2-2.4-15.4-3l-6.2-25c21.8-4.6,38.2-23.9,38.2-47h8c6.6,0,12.6-2.7,17-7s7-10.3,7-17c0-6.3-2.4-12-6.3-16.2l4.8-24
				C351.3,107.3,351.8,102.7,352,98.2L352,98.2z"/>
		</g>
		<g>
			<path class="st3" d="M366.6,320.2c-22.6,24-53,40.6-87,45.9l-16-62.2l8.6-25.4L296,288l7.4-37
				C335.9,260.2,360.4,287.1,366.6,320.2L366.6,320.2z"/>
		</g>
		<g>
			<path class="st4" d="M232,80h-8c-17.7,0-32,14.3-32,32v16h-8c-7,0-13.3,3-17.7,7.8l-5.4-26.9c-0.6-3.2-1-6.6-1-9.8
				c0-0.3,0-0.6,0-0.9c0.2-8.2,2.2-16,5.9-23c3.9-7.2,9.5-13.4,16.6-18.2l1.5-1c1.7-4.2,3.8-8.2,6.3-11.9
				c4.6-6.8,10.4-12.6,17.1-17.1c10.3-7,22.6-11,35.7-11h28.8c27.7,0,52.2,14.1,66.5,35.4C347,64.2,352,79.5,352,96.1
				c0,0.7,0,1.4-0.1,2.1c-0.1,4.6-0.6,9.1-1.4,13.6l-4.8,24C341.3,131,335,128,328,128h-8v-16c0-8.8-7.2-16-16-16h-40
				C251,96,239.3,89.7,232,80L232,80z"/>
		</g>
		<g>
			<path class="st5" d="M345.7,135.8c3.9,4.2,6.3,9.9,6.3,16.2c0,6.6-2.7,12.6-7,17s-10.3,7-17,7h-8v-48h8
				C335,128,341.3,131,345.7,135.8L345.7,135.8z"/>
		</g>
		<g>
			<path class="st5" d="M281.8,223l6.2,25l-32.5,24L224,248l6.2-25c3.1,0.6,6.4,1,9.8,1h32C275.4,224,278.6,223.7,281.8,223
				L281.8,223z"/>
		</g>
		<g>
			<path class="st6" d="M303.4,251l-7.4,37l-23.9-9.4l-16.6-6.6l32.5-24C293.3,248.6,298.5,249.5,303.4,251z"/>
		</g>
		<g>
			<path class="st7" d="M288,432v48c0,8.8-7.2,16-16,16h-32c-8.8,0-16-7.2-16-16v-48H288z"/>
		</g>
		<g>
			<path class="st5" d="M320,128v48c0,23.1-16.4,42.5-38.2,47c-3.1,0.6-6.4,1-9.8,1h-32c-3.4,0-6.6-0.3-9.8-1
				c-21.8-4.6-38.2-23.9-38.2-47v-48v-16c0-17.7,14.3-32,32-32h8c7.3,9.7,19,16,32,16h40c8.8,0,16,7.2,16,16V128z"/>
		</g>
		<g>
			<path class="st8" d="M288,416v16h-64v-16c0-6.6,2-12.8,5.4-17.9c8.6,1.3,17.5,1.9,26.6,1.9c9,0,17.9-0.6,26.6-2v0.1
				C286,403.2,288,409.4,288,416z"/>
		</g>
		<g>
			<path class="st0" d="M263.5,304l16,62.2c-7.7,1.2-15.5,1.8-23.5,1.8s-15.8-0.6-23.5-1.8l15-62.2H263.5z"/>
		</g>
		<g>
			<path class="st8" d="M272.1,278.6l-8.6,25.4h-16l-8.4-25.4l16.4-6.6L272.1,278.6z"/>
		</g>
		<g>
			<path class="st6" d="M255.5,272l-16.4,6.6L216,288l-7.4-37c5-1.4,10.2-2.4,15.4-3L255.5,272z"/>
		</g>
		<g>
			<path class="st3" d="M239.1,278.6l8.4,25.4l-15,62.2c-34.1-5.3-64.4-21.9-87-45.9c6.2-33.1,30.6-60.1,63.1-69.3l7.4,37
				L239.1,278.6z"/>
		</g>
		<g>
			<path class="st2" d="M230.2,223l-6.2,25c-5.3,0.6-10.5,1.5-15.4,3c-32.5,9.2-57,36.2-63.1,69.3c-0.2-0.2-0.5-0.5-0.7-0.8
				c-25.3-27-40.7-63.5-40.7-103.4c0-47.5,21.8-90,56-117.8V99c0,3.3,0.3,6.6,1,9.8l5.4,26.9c-3.9,4.2-6.3,9.9-6.3,16.2
				c0,6.6,2.7,12.6,7,17s10.3,7,17,7h8C192,199.1,208.4,218.5,230.2,223L230.2,223z"/>
		</g>
		<g>
			<path class="st5" d="M192,128v48h-8c-6.6,0-12.6-2.7-17-7s-7-10.3-7-17c0-6.3,2.4-12,6.3-16.2c4.4-4.8,10.7-7.8,17.7-7.8L192,128
				z"/>
		</g>
		<g>
			<path class="st1" d="M190.3,44.1c-2.5,3.7-4.6,7.7-6.3,11.9l-1.5,1c-7,4.7-12.6,11-16.6,18.2c-3.7,7-5.8,14.8-5.9,23
				c-34.2,27.8-56,70.3-56,117.8c0,39.9,15.4,76.4,40.7,103.4l-3,2.9c-1.5-1.4-3.4-2.3-5.7-2.3h-31.8C83.9,290.4,72,254.6,72,216
				C72,137.5,121.1,70.5,190.3,44.1z"/>
		</g>
		<g>
			<path class="st0" d="M144,432v40c0,4.4-3.6,8-8,8H24c-4.4,0-8-3.6-8-8V328c0-4.4,3.6-8,8-8h80.2H136c2.2,0,4.2,0.9,5.7,2.3
				c1.4,1.5,2.3,3.4,2.3,5.7v34V432z"/>
		</g>
	</g>
	<g>
		<circle cx="224" cy="128" r="6.2"/>
		<circle cx="288" cy="128" r="5.5"/>
		<path d="M252.3,131.2h7.3V157h-7.3V131.2z"/>
		<path d="M40,344h16v16H40V344z"/>
		<path d="M72,344h48v16H72V344z"/>
		<path d="M40,376h80v16H40V376z"/>
		<path d="M40,408h80v16H40V408z"/>
		<path d="M413.7,418.3l-11.3,11.3l30.3,30.3l69.6-87l-12.5-10l-58.4,73L413.7,418.3z"/>
		<path d="M40,440h80v16H40V440z"/>
	</g>
</g>
<path class="st9" d="M232.7,210.9l-12.8,6.7c0,0,6.9,4.6,17,4.5C246.9,222,232.7,210.9,232.7,210.9z"/>
<line class="st10" x1="144" y1="432" x2="384" y2="432"/>
<polyline class="st11" points="232.5,182.9 256,189.9 279.5,182.9 "/>
</svg>
