<?xml version="1.0" encoding="utf-8"?>
<!-- Generator: Adobe Illustrator 24.2.3, SVG Export Plug-In . SVG Version: 6.00 Build 0)  -->
<svg version="1.1" id="Layer_1" xmlns="http://www.w3.org/2000/svg" xmlns:xlink="http://www.w3.org/1999/xlink" x="0px" y="0px"
	 viewBox="0 0 512 512" style="enable-background:new 0 0 512 512;" xml:space="preserve">
<style type="text/css">
	.st0{fill:#FFFFFF;}
</style>
<path class="st0" d="M443.3,183.6l-10.8-3.6c-1.6-0.5-3-1.4-4.1-2.6c-1.8-1.9-2.8-4.4-2.8-7.1v-11l3.1-1.9v0
	c6.8-4.2,11-11.7,11-19.7v-19.2c0,0,0-0.1,0-0.1v-16.7c0-14-11.4-25.4-25.4-25.4h-22.1c-8.6,0-16.2,4.3-20.8,10.9V72.6
	c0-14.7-12-26.7-26.7-26.7h-23.7c-9.8,0-18.3,5.3-23,13.2V48.5c0,0,0-0.1,0-0.1V28.7c0-15.8-12.8-28.7-28.6-28.7h-26.2
	c-15.8,0-28.6,12.9-28.6,28.7v17v0v13.6c-4.6-8-13.3-13.5-23.2-13.5h-23.7c-14.7,0-26.7,12-26.7,26.7v14.8
	c-4.6-6.7-12.3-11.1-20.9-11.1H97.8c-14,0-25.4,11.4-25.4,25.4v14.4v0v21.5c0,8,4.2,15.5,11,19.7l3.1,1.9v11c0,2.9-1.2,5.6-3.3,7.5
	c-1.1,1-2.3,1.7-3.7,2.2l-10.8,3.6C52.2,189.2,41,204.8,41,222.4v5.7c0,4.1,3.4,7.5,7.5,7.5c4.1,0,7.5-3.4,7.5-7.5v-5.7
	c0-11.1,7.1-21,17.6-24.5l10.8-3.6c1.9-0.6,3.7-1.5,5.4-2.6c5.8,1.7,11.7,2.5,17.7,2.5c0.1,0,0.2,0,0.3,0c-0.5,2.6-0.7,5.1-0.7,7.8
	v93.5c0,2.2,0.2,4.3,0.6,6.4H81.5v-70.3c0-4.1-3.4-7.5-7.5-7.5c-4.1,0-7.5,3.4-7.5,7.5v94.3c-6.2-2.9-10.5-9.1-10.5-16.3v-45.4
	c0-4.1-3.4-7.5-7.5-7.5s-7.5,3.4-7.5,7.5v45.4c0,15.6,10.9,28.7,25.5,32.1v140.7c0,2.3,1.1,4.4,2.7,5.8c-1.7,3.4-2.7,7.2-2.7,11.2
	v3.6c0,5,4,9,9,9h31c0.5,0,1-0.1,1.5-0.1c0.5,0.1,1,0.1,1.5,0.1h31c0.5,0,1.1-0.1,1.6-0.1c0.5,0.1,1,0.1,1.6,0.1h33.2
	c0.6,0,1.1-0.1,1.6-0.2c0.5,0.1,1.1,0.2,1.6,0.2h33.2c0.6,0,1.1-0.1,1.7-0.2c0.6,0.1,1.1,0.2,1.7,0.2h36.6c0.6,0,1.2-0.1,1.8-0.2
	c0.6,0.1,1.2,0.2,1.8,0.2h36.6c0.6,0,1.2-0.1,1.7-0.2c0.6,0.1,1.1,0.2,1.7,0.2h33.2c0.6,0,1.1-0.1,1.6-0.2c0.5,0.1,1.1,0.2,1.6,0.2
	h33.2c0.5,0,1-0.1,1.5-0.1c0.5,0.1,1.1,0.2,1.6,0.2h31c0.5,0,1-0.1,1.5-0.1c0.5,0.1,1,0.1,1.5,0.1h31c5,0,9-4.1,9-9v-3.6
	c0-4-1-7.9-2.7-11.2c1.7-1.4,2.7-3.5,2.7-5.8V341.8c15.6-3.4,27.3-17.4,27.3-34v-85.4C471.1,204.8,459.9,189.2,443.3,183.6z
	 M396.6,316.9h32.1v158h-19V341.6c0-4.1-3.4-7.5-7.5-7.5c-4.1,0-7.5,3.4-7.5,7.5v133.3h-19V329.5
	C383.9,327.8,391.3,323.4,396.6,316.9z M262.6,470.9V312c0-4.1-3.4-7.5-7.5-7.5c-4.1,0-7.5,3.4-7.5,7.5v158.9h-25.2V356.2
	c0-4.1-3.4-7.5-7.5-7.5c-4.1,0-7.5,3.4-7.5,7.5v117.1H186V329.7c0-4.1-3.4-7.5-7.5-7.5s-7.5,3.4-7.5,7.5v143.5h-21.5V302.8h40.9
	c4.9,4.2,10.7,7.1,17,8.3v11.7c0,4.1,3.4,7.5,7.5,7.5s7.5-3.4,7.5-7.5v-18.4c0,0,0,0,0,0s0,0,0,0v-8.6c0-0.1,0-0.3,0-0.4v-13.8h65.3
	v189.4H262.6z M91.3,144.6c-2.4-1.4-3.9-4.1-3.9-6.9v-16.9l12.7-6.6l30.2,9.7v13.8c0,2.8-1.5,5.4-3.9,6.9l-13.4,8.2
	c-2.6,1.6-5.8,1.6-8.3,0L91.3,144.6z M424.6,137.7c0,2.8-1.5,5.4-3.9,6.9l-13.4,8.2c-2.6,1.6-5.8,1.6-8.3,0l-13.4-8.2
	c-2.4-1.4-3.9-4.1-3.9-6.9v-16.9l12.7-6.6l30.2,9.7V137.7z M351.9,119l-14.4,8.8c-2.9,1.8-6.6,1.8-9.5,0l-14.4-8.8
	c-2.7-1.7-4.4-4.7-4.4-7.8V92.7l14.1-7.4l33,10.6v15.2C356.3,114.3,354.6,117.3,351.9,119z M302.8,295.7v-83.8c0,0,0-0.1,0-0.1
	v-29.6c0-4.1-3.4-7.5-7.5-7.5c-4.1,0-7.5,3.4-7.5,7.5v84.4h-65.3v-54.6c0-0.1,0-0.3,0-0.4v-29.3c0-4.1-3.4-7.5-7.5-7.5
	s-7.5,3.4-7.5,7.5v113.4c-3.2-1.1-6.2-3-8.7-5.5c-4.1-4.2-6.4-9.9-6.4-15.8V171.2c0-2.2,0.2-4.4,0.7-6.5c1.2-5.7,3.9-11,7.9-15.2
	c3.6-3.9,8.2-6.8,13.2-8.5l12.8-4.3c2.4-0.8,4.6-1.9,6.6-3.2c4.2,1.3,8.6,2.2,12.9,2.6l-14,73.2c-0.4,2.3,0.2,4.7,1.8,6.4l15.6,17.4
	c1.4,1.5,3.3,2.4,5.4,2.5h0.2c2,0,3.9-0.8,5.3-2.2l17.3-17.4c1.8-1.8,2.5-4.4,2-6.8l-15.5-73.3c4.6-0.6,9.1-1.7,13.5-3.1
	c2.3,1.7,4.9,3,7.6,3.9l12.8,4.3c5,1.7,9.5,4.6,13.1,8.4c4.1,4.4,6.9,9.8,8,15.6c0.4,2,0.6,4.2,0.6,6.3V272c0,6.8-2.7,13.1-7.6,17.8
	C309.7,292.6,306.4,294.5,302.8,295.7z M134.3,157.4c6.8-4.2,11-11.7,11-19.7v-12.7c1.9,2.7,4.3,5,7.1,6.7l3.6,2.2V146
	c0,3.2-1.3,6.3-3.7,8.5c-1.2,1.1-2.6,2-4.2,2.5l-11.6,3.9c-1.9,0.6-3.7,1.4-5.4,2.2v-3.8L134.3,157.4z M171.1,146v-3.4
	c2.7,1,5.5,1.5,8.4,1.5c2.5,0,4.9-0.4,7.3-1.2c-3,4-5.3,8.4-6.9,13.1c-0.2,0-0.4,0-0.7,0c-3.3,0.1-6.6-0.2-9.8-0.7
	C170.5,152.4,171.1,149.2,171.1,146z M266.2,104.7v4.9c0,3.6,0.7,7,1.9,10.3c-4,0.9-8.1,1.5-12.2,1.6c-4,0.1-8-0.3-11.9-1
	c1.4-3.4,2.2-7.1,2.2-10.9v-4.9c3.2,1.3,6.6,2,10,2C259.6,106.7,263,106,266.2,104.7z M255.7,166.9l8.8,41.3l-8.8,8.9l-7.9-8.8
	L255.7,166.9z M294.2,88L294.2,88v23.1c0,5.1,1.7,10,4.5,14.1l-8.4-2.8c-2-0.7-3.9-1.9-5.4-3.4c-2.4-2.5-3.7-5.8-3.7-9.3V95.9
	l4.3-2.6c3.6-2.2,6.6-5.3,8.7-8.8V88z M282.9,71.2c0,3.8-2,7.3-5.2,9.3l-15.9,9.7c-3.5,2.1-7.8,2.1-11.3,0l-15.9-9.7
	c-3.2-2-5.2-5.5-5.2-9.3V50.4l16.2-8.5l37.2,12V71.2z M226.9,93.2l4.3,2.6v13.7c0,3.7-1.6,7.3-4.3,9.9c-1.4,1.3-3,2.3-4.8,2.9
	l-8.6,2.9c2.9-4.1,4.6-9,4.6-14.1V90.6c0,0,0-0.1,0-0.1v-6.4C220.1,87.8,223.2,91,226.9,93.2z M203,111.1c0,3.2-1.7,6.2-4.4,7.8
	l-14.4,8.8c-2.9,1.8-6.6,1.8-9.5,0l-14.4-8.8c-2.7-1.7-4.4-4.7-4.4-7.8V92.7l14.1-7.4l33,10.6V111.1z M124.9,305.6
	c-1.8-3-2.8-6.5-2.8-10.1v-93.6c0-6.9,2.5-13.6,7.2-18.8c3.3-3.7,7.4-6.4,12.1-8l11.6-3.9c2.1-0.7,4.1-1.7,5.9-2.9
	c6,1.8,12.1,2.7,18.4,2.8v0.1v103.1c0,4.7,0.9,9.3,2.5,13.5h-30.3v-75.9c0-4.1-3.4-7.5-7.5-7.5c-4.1,0-7.5,3.4-7.5,7.5v102
	C130.6,312.2,127.2,309.3,124.9,305.6z M360.7,309.4v163.9h-21.5V329.7c0-4.1-3.4-7.5-7.5-7.5c-4.1,0-7.5,3.4-7.5,7.5v143.5h-21.5
	V311.1c6.5-1.2,12.6-4.1,17.8-8.4h40.2V309.4z M332.6,156.1c-1.6-4.7-3.9-9.1-6.9-13.1c2.3,0.7,4.7,1.1,7.1,1.1
	c2.8,0,5.7-0.5,8.4-1.5v3.5c0,3.1,0.5,6,1.5,8.8C339.3,155.6,336,156,332.6,156.1z M359.3,154c-2.1-2.2-3.2-5-3.2-8v-12.1l3.6-2.2h0
	c2.8-1.7,5.1-3.9,7-6.5v12.5c0,8,4.2,15.5,11,19.7l3.1,1.9v3.7c-1.7-0.8-3.4-1.6-5.3-2.2L364,157C362.2,156.4,360.6,155.4,359.3,154
	z M398.5,179c-0.9-1.5-2-2.9-3.1-4.3c0.3-1.5,0.4-2.9,0.4-4.5v-2.5c2.4,0.8,4.8,1.2,7.3,1.2c2.5,0,4.9-0.4,7.3-1.2v2.5
	c0,2.7,0.4,5.4,1.3,7.9c-2.9,0.6-5.9,0.9-8.8,1C401.4,179.2,400,179.1,398.5,179z M392.1,91.4h22.1c5.7,0,10.4,4.7,10.4,10.4v6.4
	L396,99c-1.9-0.6-4-0.4-5.8,0.5l-8.5,4.5v-2.2C381.7,96,386.4,91.4,392.1,91.4z M320.9,60.8h23.7c6.4,0,11.7,5.3,11.7,11.7v7.6
	l-31.4-10.1c-1.9-0.6-4-0.4-5.8,0.5l-9.9,5.2v-3.2C309.2,66.1,314.4,60.8,320.9,60.8z M243.1,15h26.2c7.5,0,13.6,6.1,13.6,13.7v9.4
	l-35.6-11.4c-1.9-0.6-4-0.4-5.8,0.5l-12.1,6.3v-4.8C229.5,21.1,235.6,15,243.1,15z M167.6,60.8h23.7c6.4,0,11.7,5.3,11.7,11.7v7.6
	l-31.4-10.1c-1.9-0.6-4-0.4-5.8,0.5l-9.9,5.2v-3.2C155.9,66.1,161.1,60.8,167.6,60.8z M97.8,91.3H120c5.7,0,10.4,4.7,10.4,10.4v6.4
	L101.8,99c-1.9-0.6-4-0.4-5.8,0.5l-8.5,4.5v-2.1C87.5,96,92.1,91.3,97.8,91.3z M108.6,179.1c-2.8,0.1-5.7-0.1-8.5-0.6
	c0.9-2.7,1.4-5.5,1.4-8.3v-2.5c2.4,0.8,4.8,1.2,7.3,1.2c2.5,0,4.9-0.4,7.3-1.2v7.7c-0.8,1.1-1.6,2.2-2.3,3.3
	C112.2,178.9,110.4,179.1,108.6,179.1z M114.6,316.9c5,6.4,12.1,10.8,19.9,12.6v145.4h-19V341.6c0-4.1-3.4-7.5-7.5-7.5
	s-7.5,3.4-7.5,7.5v133.3h-19v-158H114.6z M81.8,497c1.1-4.1,4.8-7.1,9.2-7.1s8.1,3,9.2,7.1H81.8z M115.8,497
	c1.1-4.1,4.8-7.1,9.2-7.1s8.1,3,9.2,7.1H115.8z M149.7,497c0.9-5,5.3-8.7,10.5-8.7c5.2,0,9.6,3.8,10.5,8.7H149.7z M186.2,497
	c0.9-5,5.3-8.7,10.5-8.7s9.6,3.8,10.5,8.7H186.2z M222.5,497c0.7-6.3,6.1-11.1,12.5-11.1c6.4,0,11.8,4.9,12.5,11.1H222.5z
	 M262.7,497c0.7-6.3,6.1-11.1,12.5-11.1c6.4,0,11.8,4.9,12.5,11.1H262.7z M303,497c0.9-5,5.3-8.7,10.5-8.7c5.2,0,9.6,3.8,10.5,8.7
	H303z M339.5,497c0.9-5,5.3-8.7,10.5-8.7s9.6,3.8,10.5,8.7H339.5z M376,497c1.1-4.1,4.8-7.1,9.2-7.1s8.1,3,9.2,7.1H376z M410,497
	c1.1-4.1,4.8-7.1,9.2-7.1s8.1,3,9.2,7.1H410z M456.1,307.8c0,8.3-5.1,15.4-12.3,18.3v-94.5c0-4.1-3.4-7.5-7.5-7.5
	c-4.1,0-7.5,3.4-7.5,7.5v70.3h-24.7c0.6-2.7,1-5.6,1-8.4v-13.6c0-4.1-3.4-7.5-7.5-7.5c-4.1,0-7.5,3.4-7.5,7.5v13.6
	c0,4.2-1.2,8.3-3.5,11.9c-2.6,4.1-6.4,7-10.8,8.6V211.8c0-4.1-3.4-7.5-7.5-7.5c-4.1,0-7.5,3.4-7.5,7.5v19.6c0,0.1,0,0.1,0,0.2v56.1
	h-28.9c2.1-4.9,3.2-10.2,3.2-15.7V171.2c0-0.1,0-0.1,0-0.2c5.9-0.3,11.7-1.4,17.3-3.3c2.1,1.5,4.4,2.6,6.8,3.5l11.6,3.9
	c4.2,1.4,7.9,3.7,11.1,6.9c2.1,2.1,3.9,4.6,5.3,7.4c1.9,3.9,2.9,8.2,2.9,12.5v42.4c0,4.1,3.4,7.5,7.5,7.5c4.1,0,7.5-3.4,7.5-7.5
	v-42.4c0-2.6-0.3-5.2-0.7-7.8c5.8-0.2,11.5-1.2,17.1-3c1.9,1.3,4,2.4,6.3,3.2l10.8,3.6c10.5,3.6,17.6,13.4,17.6,24.5V307.8z"/>
</svg>
