<?xml version="1.0" encoding="utf-8"?>
<!-- Generator: Adobe Illustrator 24.2.3, SVG Export Plug-In . SVG Version: 6.00 Build 0)  -->
<svg version="1.1" id="Capa_1" xmlns="http://www.w3.org/2000/svg" xmlns:xlink="http://www.w3.org/1999/xlink" x="0px" y="0px"
	 viewBox="0 0 512 512" style="enable-background:new 0 0 512 512;" xml:space="preserve">
<style type="text/css">
	.st0{fill:#FFD13F;stroke:#000000;stroke-width:3;stroke-miterlimit:10;}
	.st1{fill:#3B465C;stroke:#000000;stroke-width:3;stroke-miterlimit:10;}
	.st2{fill:#FFFFFF;stroke:#000000;stroke-width:3;stroke-miterlimit:10;}
	.st3{fill:#E8A87C;stroke:#000000;stroke-width:3;stroke-miterlimit:10;}
	.st4{fill:#FEC495;stroke:#000000;stroke-width:2;stroke-miterlimit:10;}
	.st5{fill:#E8A87C;}
	.st6{fill:#253140;stroke:#000000;stroke-width:3;stroke-miterlimit:10;}
	.st7{fill:#232323;stroke:#000000;stroke-width:3;stroke-miterlimit:10;}
	.st8{fill:#FB4A75;stroke:#000000;stroke-width:3;stroke-miterlimit:10;}
	.st9{fill:#E89435;stroke:#000000;stroke-width:3;stroke-miterlimit:10;}
	.st10{fill:#FDBC69;stroke:#000000;stroke-width:3;stroke-miterlimit:10;}
	.st11{fill:#88BF40;stroke:#000000;stroke-width:3;stroke-miterlimit:10;}
	.st12{fill:#FFFFFF;}
</style>
<path class="st0" d="M512,256c0,141.4-114.6,256-256,256c-33.9,0-66.2-6.6-95.9-18.5c-8-3.3-15.9-6.9-23.5-10.9
	c-0.2-0.1-0.3-0.2-0.5-0.3c-5.3-2.8-10.5-5.8-15.6-9c-1.9-1.2-3.8-2.4-5.7-3.7c-5-3.3-9.9-6.8-14.7-10.5
	c-12-9.3-23.2-19.6-33.4-30.8c-25.7-28.2-45.1-62.1-56.2-99.7C3.6,305.6,0,281.2,0,256C0,114.6,114.6,0,256,0S512,114.6,512,256z"/>
<path class="st1" d="M509.3,293.5c-10.7,73.2-52.5,136.3-111.4,175.7c-30.4,20.3-65.3,34.2-103,39.9c-12.7,1.9-25.6,2.9-38.8,2.9
	c-24,0-47.3-3.3-69.3-9.5v-209H509.3z"/>
<g>
	<path class="st2" d="M397.8,319.6v149.6c-6.5,4.3-13.2,8.4-20.1,12.1c-21,11.4-43.8,19.9-67.9,25c-5,1.1-10,2-15,2.8V319.6H397.8z"
		/>
	<path class="st2" d="M420.5,372.8L361.7,50.1c-3.1-17.2-27.7-17.2-30.9,0l-58.8,322.7l74.2-79.6L420.5,372.8z"/>
</g>
<g>
	<circle class="st3" cx="245.7" cy="171.4" r="33.8"/>
	<circle class="st3" cx="446.3" cy="171.4" r="33.8"/>
</g>
<path class="st4" d="M346.3,293.9L346.3,293.9c-55.6,0-100.6-45-100.6-100.6V64.1h201.2v129.1C446.9,248.9,401.9,293.9,346.3,293.9z
	"/>
<path class="st5" d="M360.7,291.9c-4.7,0.7-9.5,1-14.4,1c-55.6,0-100.6-44.8-100.6-100.2V64.1h28.8v128.6
	C274.5,243.2,312,284.9,360.7,291.9z"/>
<path class="st6" d="M267,86l-31.1,15.7V173l0,0C253,173,267,159,267,141.8V86z"/>
<g>
	<path class="st1" d="M425.7,31.1h31.1V173l0,0c-17.2,0-31.1-13.9-31.1-31.1V31.1z"/>
	<path class="st1" d="M411,101.6H235.8l0,0C235.8,46,280.9,0.9,336.5,0.9h175.2l0,0C511.8,56.6,466.7,101.6,411,101.6z"/>
</g>
<path class="st6" d="M383.8,0.9h-47.2c-55.6,0-100.7,45.1-100.7,100.7l0,0h47.2l0,0C283,46,328.1,0.9,383.8,0.9z"/>
<g>
	<path class="st7" d="M321.8,161.2c0-10.4-8.4-18.8-18.8-18.8s-18.8,8.4-18.8,18.8"/>
	<path class="st7" d="M408,161.2c0-10.4-8.4-18.8-18.8-18.8s-18.8,8.4-18.8,18.8"/>
</g>
<path class="st3" d="M362.3,179h-31.9c-5.5,0-9.9,4.4-9.9,9.9l0,0c0,5.5,4.4,9.9,9.9,9.9h31.9c5.5,0,9.9-4.4,9.9-9.9l0,0
	C372.2,183.5,367.7,179,362.3,179z"/>
<path class="st2" d="M299.3,209.3c0,26,21.1,47,47,47c26,0,47-21.1,47-47"/>
<g>
	
		<rect x="318.9" y="305.3" transform="matrix(0.7071 -0.7071 0.7071 0.7071 -133.8125 342.3184)" class="st8" width="54.9" height="54.9"/>
	<path class="st8" d="M377.7,481.3c-21,11.4-43.8,19.9-67.9,25l35.1-186.7l1.4-7.3l1.4,7.3L377.7,481.3z"/>
</g>
<path class="st9" d="M160.1,395.5v97.9c-8-3.3-15.9-6.9-23.5-10.9c-0.2-0.1-0.3-0.2-0.5-0.3c-5.3-2.8-10.5-5.8-15.6-9v-77.7
	L160.1,395.5L160.1,395.5z"/>
<path class="st10" d="M160.1,443.8v49.7c-8-3.3-15.9-6.9-23.5-10.9v-38.7H160.1L160.1,443.8z"/>
<path class="st11" d="M270.2,276v127c0,13.9-11.3,25.2-25.2,25.2H66.7c-25.7-28.2-45.1-62.1-56.2-99.7V276
	c0-13.9,11.3-25.2,25.2-25.2H245C258.9,250.8,270.2,262.1,270.2,276z"/>
<g>
	<path class="st12" d="M89.6,317.5c-1.3,0-2.1-1.2-2.1-2.6c0-1.2,0.7-2.4,2.1-2.4h14.5c1.3,0,2.6,0.7,2.6,2.1v41.2
		c0,12.9-7.5,17.7-17,17.7c-10.6,0-17.4-6.1-17.4-14.5c0-2.1,1-2.8,2.6-2.8c1.4,0,2.8,0.6,2.8,2.1c0,6.3,4.6,10.2,11.7,10.2
		c7.4,0,11.7-4,11.7-12.6v-38.2H89.6z"/>
	<path class="st12" d="M118.4,355.6V330c0-12.8,7.5-17.6,17.2-17.6s17.2,4.8,17.2,17.6v25.6c0,12.9-7.5,17.7-17.2,17.7
		S118.4,368.5,118.4,355.6z M147.3,330c0-8.6-4.4-12.6-11.7-12.6s-11.7,4-11.7,12.6v25.6c0,8.7,4.4,12.6,11.7,12.6s11.7-4,11.7-12.6
		V330z"/>
	<path class="st12" d="M164.7,314.5c0-1.4,1.2-2.1,2.5-2.1h13.6c9.3,0,16.9,2.4,16.9,14c0,6.9-2.8,11.8-7,13.6
		c5,2.1,8.5,5.8,8.5,14.2v1.5c0,12.6-7.2,17-16.4,17h-15.5c-1.6,0-2.5-1-2.5-2.1V314.5z M170,337.7h10.8c7.6,0,11.2-2.8,11.2-10.7
		c0-7.6-4.8-9.6-11.6-9.6H170V337.7z M182,367.8c7.2,0,11.6-3.7,11.6-12.2v-1.4c0-8.6-4.4-11.7-11.6-11.7h-12v25.4H182z"/>
</g>
</svg>
