<?xml version="1.0" encoding="utf-8"?>
<!-- Generator: Adobe Illustrator 24.2.3, SVG Export Plug-In . SVG Version: 6.00 Build 0)  -->
<svg version="1.1" id="_x33_0" xmlns="http://www.w3.org/2000/svg" xmlns:xlink="http://www.w3.org/1999/xlink" x="0px" y="0px"
	 viewBox="0 0 512 512" style="enable-background:new 0 0 512 512;" xml:space="preserve">
<style type="text/css">
	.st0{fill:#88BF40;stroke:#000000;stroke-width:3;stroke-miterlimit:10;}
	.st1{fill:#A0D468;stroke:#000000;stroke-width:3;stroke-miterlimit:10;}
	.st2{fill:#AAB2BD;stroke:#000000;stroke-width:3;stroke-miterlimit:10;}
	.st3{fill:#CCD1D9;stroke:#000000;stroke-width:3;stroke-miterlimit:10;}
	.st4{fill:#FB4A75;stroke:#000000;stroke-width:3;stroke-miterlimit:10;}
	.st5{fill:#F0D0B4;stroke:#000000;stroke-width:3;stroke-miterlimit:10;}
	.st6{fill:#3B3D3F;stroke:#000000;stroke-width:3;stroke-miterlimit:10;}
	.st7{fill:#FFD13F;stroke:#000000;stroke-width:3;stroke-miterlimit:10;}
	.st8{fill:#FCD770;stroke:#000000;stroke-width:3;stroke-miterlimit:10;}
</style>
<g>
	<g>
		<g>
			<path class="st0" d="M432,184v46.1c0,15.9-9,30.4-23.1,37.5c-5.8,2.9-12.2,4.4-18.8,4.4H312l-24,40l-40-16l-40,16l-22.1-35.6
				l-32.3,6.5c-16.6,3.3-31.4,12.3-41.9,25.5C101.5,321,96,336.9,96,353.1V456c0,22.1,17.9,40,40,40h40v-32v-16V344c0-4.4,3.6-8,8-8
				h104h80h25.4c29.6,0,57.8-12.8,77.2-35c8.2-9.3,14.5-20,18.8-31.4s6.6-23.6,6.6-36.1V184L432,184z"/>
		</g>
		<g>
			<path class="st1" d="M248,296l-40,16l-22.1-35.6L208,272L248,296z"/>
		</g>
		<g>
			<path class="st1" d="M312,272l-24,40l-40-16l40-24H312z"/>
		</g>
		<g>
			<path class="st2" d="M368,464v24c0,4.4-3.6,8-8,8H176v-32H368z"/>
		</g>
		<g>
			<path class="st3" d="M368,336v128H176v-16V344c0-4.4,3.6-8,8-8h104H368z"/>
		</g>
		<g>
			<circle class="st4" cx="272" cy="400" r="16"/>
		</g>
		<g>
			<path class="st5" d="M432,120l3.8-22.6c1.2-7.3,5-13.7,10.3-18.2c5.4-4.5,12.2-7.2,19.6-7.2c16.7,0,30.3,13.6,30.3,30.3V184h-64
				l-6.6-6.6c-6-6-9.4-14.2-9.4-22.6V136C416,127.2,423.2,120,432,120L432,120z"/>
		</g>
		<g>
			<path class="st6" d="M282.6,87.9c-19.4-0.6-38.4-4.6-56.3-11.8l-3.1-1.2c-4.7-1.9-9.8-2.9-15-2.9C186,72,168,90,168,112.2V136h-8
				c-6.4,0-12.2,2.5-16.4,6.5l-5-20.2c-1.7-6.8-2.6-13.8-2.6-20.8c0-23.6,9.6-45,25-60.4s36.8-25,60.4-25H316c24.3,0,44,19.7,44,44
				c0,12.2-5,23.2-12.9,31.1c-5.2,5.2-11.8,9.1-19.1,11.2c-3.8,1.1-7.8,1.7-12,1.7h-8.1C296.7,104,287,97.4,282.6,87.9z"/>
		</g>
		<g>
			<path class="st5" d="M336,136c13.3,0,24,10.7,24,24c0,6.6-2.7,12.6-7,17s-10.3,7-17,7h-11.7c2.4-7.6,3.7-15.6,3.7-24v-24L336,136
				z"/>
		</g>
		<g>
			<path class="st5" d="M171.7,184H160c-6.6,0-12.6-2.7-17-7s-7-10.3-7-17c0-6.9,2.9-13.1,7.6-17.5c4.2-4,10-6.5,16.4-6.5h8v24
				C168,168.4,169.3,176.4,171.7,184L171.7,184z"/>
		</g>
		<g>
			<path class="st5" d="M280.2,233.2L288,272l-40,24l-40-24l7.8-38.8c9.8,4.4,20.8,6.8,32.2,6.8S270.4,237.6,280.2,233.2z"/>
		</g>
		<g>
			<path class="st5" d="M328,136v24c0,8.4-1.3,16.4-3.7,24c-7,22.1-23.1,40-44.1,49.2c-9.8,4.4-20.8,6.8-32.2,6.8
				s-22.4-2.4-32.2-6.8c-9.1-4-17.4-9.7-24.3-16.6c-9-9-15.8-20.1-19.8-32.6c-2.4-7.6-3.7-15.6-3.7-24v-24v-23.8
				C168,90,186,72,208.2,72c5.1,0,10.2,1,15,2.9l3.1,1.2c17.9,7.2,37,11.2,56.3,11.8c4.4,9.5,14.1,16.1,25.3,16.1h8.1
				c4.2,0,8.2-0.6,12-1.7L328,136z"/>
		</g>
		<g>
			<path class="st4" d="M216,176h64c0,17.7-14.3,32-32,32c-8.8,0-16.8-3.6-22.6-9.4C219.6,192.8,216,184.8,216,176z"/>
		</g>
		<g>
			<path class="st2" d="M87.7,249.8l-6.4,31.8c-0.7,3.7-4,6.4-7.8,6.4H54.6c-3.8,0-7.1-2.7-7.8-6.4l-6.4-31.8c7,4,15,6.2,23.7,6.2
				S80.7,253.8,87.7,249.8z"/>
		</g>
		<g>
			<path class="st7" d="M64,256c-8.6,0-16.7-2.2-23.7-6.2C25.8,241.5,16,225.8,16,208c0-26.5,21.5-48,48-48s48,21.5,48,48
				c0,17.8-9.8,33.5-24.3,41.8C80.7,253.8,72.6,256,64,256z"/>
		</g>
		<g>
			<circle class="st8" cx="64" cy="208" r="16"/>
		</g>
	</g>
</g>
</svg>
