<?xml version="1.0" encoding="utf-8"?>
<!-- Generator: Adobe Illustrator 24.2.3, SVG Export Plug-In . SVG Version: 6.00 Build 0)  -->
<svg version="1.1" id="Layer_1" xmlns="http://www.w3.org/2000/svg" xmlns:xlink="http://www.w3.org/1999/xlink" x="0px" y="0px"
	 viewBox="0 0 512 512" style="enable-background:new 0 0 512 512;" xml:space="preserve">
<style type="text/css">
	.st0{fill:#88BF40;stroke:#000000;stroke-width:3;stroke-miterlimit:10;}
	.st1{fill:#0093BA;stroke:#000000;stroke-width:3;stroke-miterlimit:10;}
	.st2{fill:#F5BE9A;stroke:#000000;stroke-width:3;stroke-miterlimit:10;}
</style>
<g id="FilledOutline">
	<path class="st0" d="M408,106v230h-92.7c13.3-32.8-2.6-70.1-35.3-83.3s-70.1,2.6-83.3,35.3c-6.2,15.4-6.2,32.6,0,48H136v-84.7
		c-32.8,13.3-70.1-2.6-83.3-35.3s2.6-70.1,35.3-83.3c15.4-6.2,32.6-6.2,48,0V56h222C385.6,56,408,78.4,408,106z"/>
	<path class="st1" d="M154,488h198v-92.7c-32.8,13.3-70.1-2.6-83.3-35.3s2.6-70.1,35.3-83.3c15.4-6.2,32.6-6.2,48,0V200h-60.7
		c13.3-32.8-2.6-70.1-35.3-83.3c-32.8-13.3-70.1,2.6-83.3,35.3c-6.2,15.4-6.2,32.6,0,48H104v238C104,465.6,126.4,488,154,488z"/>
	<path class="st2" d="M488,232l-24-24v-72c0-13.3-10.7-24-24-24h-32v32l-20-20c-6.6-6.6-17.4-6.6-24,0l0,0c-6.6,6.6-6.6,17.4,0,24
		l36,36l0,0c-17.7,17.7-17.7,46.3,0,64l40,40L488,232z"/>
	<path class="st2" d="M24,408l24-24v-72c0-13.3,10.7-24,24-24h32v32l20-20c6.6-6.6,17.4-6.6,24,0l0,0c6.6,6.6,6.6,17.4,0,24l-36,36
		l0,0c17.7,17.7,17.7,46.3,0,64l-40,40L24,408z"/>
</g>
</svg>
