<?xml version="1.0" encoding="utf-8"?>
<!-- Generator: Adobe Illustrator 24.2.3, SVG Export Plug-In . SVG Version: 6.00 Build 0)  -->
<svg version="1.1" id="Capa_1" xmlns="http://www.w3.org/2000/svg" xmlns:xlink="http://www.w3.org/1999/xlink" x="0px" y="0px"
	 viewBox="0 0 512 512" style="enable-background:new 0 0 512 512;" xml:space="preserve">
<style type="text/css">
	.st0{fill:#3B465C;stroke:#000000;stroke-width:3;stroke-miterlimit:10;}
	.st1{fill:#FFD13F;stroke:#000000;stroke-width:3;stroke-miterlimit:10;}
	.st2{opacity:0.6;fill:#FFD064;}
	.st3{fill:#E4F6FF;stroke:#000000;stroke-width:3;stroke-miterlimit:10;}
	.st4{fill:#D8E2F1;stroke:#000000;stroke-width:3;stroke-miterlimit:10;}
	.st5{fill:#B9CBEA;stroke:#000000;stroke-width:3;stroke-miterlimit:10;}
	.st6{fill:#F4FBFF;stroke:#000000;stroke-width:3;stroke-miterlimit:10;}
	.st7{fill:#CBE2FF;stroke:#000000;stroke-width:3;stroke-miterlimit:10;}
	.st8{fill:#2B4D66;stroke:#000000;stroke-width:3;stroke-miterlimit:10;}
</style>
<g>
	<g>
		<g>
			<path class="st0" d="M303.3,504.5h-94.6c-13.9,0-25.2-11.3-25.2-25.2v-76.8h145v76.8C328.5,493.2,317.2,504.5,303.3,504.5z"/>
			<path class="st0" d="M265.2,402.5v76.8c0,13.9-11.3,25.2-25.2,25.2h63.3c13.9,0,25.2-11.3,25.2-25.2v-76.8H265.2z"/>
			<path class="st1" d="M325,414.5c5.9-45.3,25.7-87.9,56.8-121.9c27.6-30.3,44.5-70.5,44.5-114.7c0-94.5-76.9-171-171.6-170.3
				c-93.5,0.7-169.5,77.6-169,171.1c0.2,44,17.1,84.1,44.7,114.2c31.1,33.9,50.7,76.5,56.6,121.7L325,414.5z"/>
			<path class="st2" d="M363,177.8c0,44.2-16.8,84.5-44.5,114.7c-31.1,34.1-50.9,76.7-56.8,121.9H325c5.9-45.3,25.7-87.9,56.8-121.9
				c27.6-30.3,44.5-70.5,44.5-114.7c0-94.5-76.9-171-171.6-170.3c-10.3,0.1-20.5,1.1-30.3,3C303.3,25.3,363,94.6,363,177.8
				L363,177.8z"/>
			<g>
				<path class="st3" d="M336.5,396.1H175.5c-10.2,0-18.4-8.2-18.4-18.4s8.2-18.4,18.4-18.4h160.9c10.2,0,18.4,8.2,18.4,18.4
					S346.6,396.1,336.5,396.1z"/>
				<path class="st4" d="M336.5,432.9H175.5c-10.2,0-18.4-8.2-18.4-18.4s8.2-18.4,18.4-18.4h160.9c10.2,0,18.4,8.2,18.4,18.4
					S346.6,432.9,336.5,432.9z"/>
				<path class="st3" d="M336.5,469.7H175.5c-10.2,0-18.4-8.2-18.4-18.4c0-10.2,8.2-18.4,18.4-18.4h160.9c10.2,0,18.4,8.2,18.4,18.4
					C354.9,461.5,346.6,469.7,336.5,469.7z"/>
			</g>
			<g>
				<path class="st4" d="M336.5,359.3h-63.3c10.2,0,18.4,8.2,18.4,18.4s-8.2,18.4-18.4,18.4h63.3c10.2,0,18.4-8.2,18.4-18.4
					S346.6,359.3,336.5,359.3z"/>
				<path class="st5" d="M336.5,396.1h-63.3c10.2,0,18.4,8.2,18.4,18.4s-8.2,18.4-18.4,18.4h63.3c10.2,0,18.4-8.2,18.4-18.4
					S346.6,396.1,336.5,396.1z"/>
				<path class="st4" d="M336.5,432.9h-63.3c10.2,0,18.4,8.2,18.4,18.4s-8.2,18.4-18.4,18.4h63.3c10.2,0,18.4-8.2,18.4-18.4
					S346.6,432.9,336.5,432.9z"/>
			</g>
		</g>
		<g>
			<g>
				<path class="st6" d="M378.9,186.8v-20.9c0-6.1-4.9-11-11-11h-1.2c-5,0-9.3-3.4-10.6-8.2c-2-7.2-4.8-14.1-8.2-20.6
					c-2.3-4.3-1.6-9.6,1.9-13.1l0.6-0.6c4.3-4.3,4.3-11.3,0-15.6l-14.8-14.8c-4.3-4.3-11.3-4.3-15.6,0l-0.1,0.1
					c-3.5,3.5-8.9,4.2-13.3,1.8c-6.7-3.7-13.8-6.7-21.2-8.9c-4.7-1.4-7.8-5.7-7.8-10.5v0c0-6.1-4.9-11-11-11h-20.9
					c-6.1,0-11,4.9-11,11v0c0,4.9-3.2,9.2-7.8,10.5c-7.5,2.2-14.6,5.2-21.2,8.9c-4.3,2.4-9.8,1.8-13.3-1.8l-0.1-0.1
					c-4.3-4.3-11.3-4.3-15.6,0l-14.8,14.8c-4.3,4.3-4.3,11.3,0,15.6l0.6,0.6c3.5,3.5,4.2,8.7,1.9,13.1c-3.4,6.5-6.2,13.4-8.2,20.6
					c-1.3,4.8-5.6,8.2-10.6,8.2h-1.2c-6.1,0-11,4.9-11,11v20.9c0,6.1,4.9,11,11,11h2.2c4.9,0,9.1,3.2,10.5,7.9
					c2.2,6.9,5,13.5,8.5,19.8c2.4,4.3,1.6,9.6-1.9,13l-1.8,1.8c-4.3,4.3-4.3,11.3,0,15.6l14.8,14.8c4.3,4.3,11.3,4.3,15.6,0l2.3-2.3
					c3.4-3.4,8.6-4.2,12.8-2c6.2,3.3,12.7,6,19.5,8c4.7,1.4,7.8,5.7,7.8,10.6v3.3c0,6.1,4.9,11,11,11h20.9c6.1,0,11-4.9,11-11v-3.3
					c0-4.9,3.2-9.2,7.8-10.6c6.8-2,13.4-4.7,19.5-8c4.2-2.3,9.4-1.4,12.8,2l2.3,2.3c4.3,4.3,11.3,4.3,15.6,0l14.8-14.8
					c4.3-4.3,4.3-11.3,0-15.6l-1.8-1.8c-3.5-3.5-4.3-8.8-1.9-13c3.5-6.2,6.4-12.8,8.5-19.8c1.5-4.6,5.7-7.9,10.5-7.9h2.2
					C373.9,197.8,378.9,192.9,378.9,186.8L378.9,186.8z"/>
			</g>
			<g>
				<circle class="st7" cx="256" cy="174.7" r="70.9"/>
				<path class="st0" d="M256,245.6c21.9,0,41.6-10,54.6-25.6c-10.2-19.7-30.8-33.2-54.6-33.2c-23.8,0-44.3,13.5-54.6,33.2
					C214.4,235.7,234.1,245.6,256,245.6z"/>
				
					<ellipse transform="matrix(0.1602 -0.9871 0.9871 0.1602 50.3896 392.7399)" class="st8" cx="256" cy="166.8" rx="26.2" ry="26.2"/>
			</g>
		</g>
	</g>
</g>
</svg>
