<svg id="Capa_1" enable-background="new 0 0 512 512" height="512" viewBox="0 0 512 512" width="512" xmlns="http://www.w3.org/2000/svg"><g><path d="m141.649 391.021h-82.016c-9.635 0-17.445-7.811-17.445-17.445v-290.954c0-9.635 7.811-17.445 17.445-17.445h82.015c9.635 0 17.445 7.811 17.445 17.445v290.955c.001 9.634-7.809 17.444-17.444 17.444z" fill="#9dc6fb"/><path d="m141.649 65.176h-24.938c9.635 0 17.445 7.811 17.445 17.445v290.955c0 9.635-7.811 17.445-17.445 17.445h24.938c9.635 0 17.445-7.811 17.445-17.445v-290.954c0-9.635-7.81-17.446-17.445-17.446z" fill="#8993da"/><path d="m452.367 391.021h-62.015c-9.635 0-17.445-7.811-17.445-17.445v-290.954c0-9.635 7.811-17.445 17.445-17.445h62.015c9.635 0 17.445 7.811 17.445 17.445v290.955c0 9.634-7.81 17.444-17.445 17.444z" fill="#f6e266"/><path d="m452.367 65.176h-24.938c9.635 0 17.445 7.811 17.445 17.445v290.955c0 9.635-7.811 17.445-17.445 17.445h24.938c9.635 0 17.445-7.811 17.445-17.445v-290.954c0-9.635-7.81-17.446-17.445-17.446z" fill="#ecbe6b"/><path d="m355.461 391.021h-82.015c-9.635 0-17.445-7.811-17.445-17.445v-290.954c0-9.635 7.811-17.445 17.445-17.445h82.015c9.635 0 17.445 7.811 17.445 17.445v290.955c0 9.634-7.81 17.444-17.445 17.444z" fill="#dd636e"/><path d="m355.461 65.176h-24.938c9.635 0 17.445 7.811 17.445 17.445v290.955c0 9.635-7.811 17.445-17.445 17.445h24.938c9.635 0 17.445-7.811 17.445-17.445v-290.954c0-9.635-7.81-17.446-17.445-17.446z" fill="#c63d4f"/><path d="m238.555 391.021h-62.015c-9.635 0-17.445-7.811-17.445-17.445v-250.954c0-9.635 7.811-17.445 17.445-17.445h62.015c9.635 0 17.445 7.811 17.445 17.445v250.954c0 9.635-7.81 17.445-17.445 17.445z" fill="#80e29d"/><path d="m238.555 105.176h-24.938c9.635 0 17.445 7.811 17.445 17.445v250.955c0 9.635-7.811 17.445-17.445 17.445h24.938c9.635 0 17.445-7.811 17.445-17.445v-250.954c0-9.635-7.81-17.446-17.445-17.446z" fill="#66b49d"/><path d="m316.054 315.073-2.183 12.536c-2.554 14.668-15.286 25.375-30.175 25.375h-55.392c-14.889 0-27.621-10.707-30.175-25.375l-2.183-12.536c-.952-5.471-5.701-9.464-11.254-9.464h-169.553c-4.219 0-7.638 3.42-7.638 7.638v101.055c0 17.961 14.56 32.521 32.521 32.521h431.958c17.961 0 32.521-14.56 32.521-32.521v-101.054c0-4.219-3.42-7.638-7.638-7.638h-169.555c-5.553 0-10.302 3.993-11.254 9.463z" fill="#365e7d"/><g fill="#2b4d66"><path d="m160.947 315.073 2.183 12.536c2.554 14.668 15.286 25.375 30.175 25.375h35c-14.889 0-27.621-10.707-30.175-25.375l-2.182-12.536c-.953-5.471-5.701-9.464-11.254-9.464h-35c5.552.001 10.3 3.994 11.253 9.464z"/><path d="m496.862 305.61h-35c4.219 0 7.638 3.42 7.638 7.638v101.054c0 17.961-14.56 32.521-32.521 32.521h35c17.961 0 32.521-14.56 32.521-32.521v-101.054c0-4.219-3.419-7.638-7.638-7.638z"/></g><g><path d="m108.141 262.729v-136.246c0-4.143-3.357-7.5-7.5-7.5s-7.5 3.357-7.5 7.5v136.246c0 4.143 3.357 7.5 7.5 7.5s7.5-3.357 7.5-7.5z"/><path d="m218.69 393.437c-4.143 0-7.5 3.357-7.5 7.5s3.357 7.5 7.5 7.5h74.62c4.143 0 7.5-3.357 7.5-7.5s-3.357-7.5-7.5-7.5z"/><path d="m315.852 118.983c-4.143 0-7.5 3.357-7.5 7.5v136.246c0 4.143 3.357 7.5 7.5 7.5s7.5-3.357 7.5-7.5v-136.246c0-4.142-3.358-7.5-7.5-7.5z"/><path d="m496.862 298.109h-19.55v-156.632c0-4.143-3.357-7.5-7.5-7.5s-7.5 3.357-7.5 7.5v156.633h-81.906v-215.488c0-5.483 4.461-9.945 9.945-9.945h62.016c5.484 0 9.945 4.462 9.945 9.945v28.867c0 4.143 3.357 7.5 7.5 7.5s7.5-3.357 7.5-7.5v-28.867c0-13.755-11.19-24.945-24.945-24.945h-62.016c-6.786 0-12.944 2.727-17.445 7.138-4.502-4.411-10.66-7.138-17.445-7.138h-82.016c-13.755 0-24.945 11.19-24.945 24.945v17.129c-3.049-1.331-6.411-2.074-9.945-2.074h-62.015c-3.534 0-6.896.743-9.945 2.074v-17.129c0-13.755-11.19-24.945-24.945-24.945h-82.016c-13.755 0-24.945 11.19-24.945 24.945v138.609c0 4.143 3.357 7.5 7.5 7.5s7.5-3.357 7.5-7.5v-138.609c0-5.483 4.461-9.945 9.945-9.945h82.016c5.484 0 9.945 4.462 9.945 9.945v39.962c0 .013-.001.026-.001.038v175.487h-101.906v-46.891c0-4.143-3.357-7.5-7.5-7.5s-7.5 3.357-7.5 7.5v46.891h-19.55c-8.347 0-15.138 6.791-15.138 15.139v101.055c0 22.067 17.953 40.021 40.021 40.021h275.508c4.143 0 7.5-3.357 7.5-7.5s-3.357-7.5-7.5-7.5h-275.508c-13.796-.001-25.021-11.225-25.021-25.021v-101.055c0-.076.062-.139.139-.139h169.554c1.912 0 3.537 1.367 3.865 3.25l2.183 12.536c3.187 18.304 18.984 31.589 37.564 31.589h55.392c18.579 0 34.377-13.285 37.563-31.589l2.183-12.535c.328-1.884 1.954-3.251 3.865-3.251h169.555c.076 0 .138.062.138.139v101.055c0 13.796-11.225 25.021-25.021 25.021h-126.463c-4.143 0-7.5 3.357-7.5 7.5s3.357 7.5 7.5 7.5h126.463c22.067 0 40.021-17.953 40.021-40.021v-101.055c-.001-8.348-6.792-15.139-15.139-15.139zm-291.344 28.214-2.183-12.536c-1.581-9.084-9.421-15.678-18.643-15.678h-18.098v-175.506c.011-5.474 4.468-9.926 9.945-9.926h62.015c5.484 0 9.945 4.462 9.945 9.945v222.862h-20.195c-11.27 0-20.853-8.058-22.786-19.161zm103.147-12.536-2.183 12.536c-1.934 11.103-11.516 19.161-22.786 19.161h-20.196v-262.862c0-5.483 4.462-9.945 9.945-9.945h82.016c5.483 0 9.945 4.462 9.945 9.945v215.487h-38.099c-9.219 0-17.059 6.593-18.642 15.678z"/></g></g></svg>