<?xml version="1.0" encoding="utf-8"?>
<!-- Generator: Adobe Illustrator 24.2.3, SVG Export Plug-In . SVG Version: 6.00 Build 0)  -->
<svg version="1.1" id="_x33_0" xmlns="http://www.w3.org/2000/svg" xmlns:xlink="http://www.w3.org/1999/xlink" x="0px" y="0px"
	 viewBox="0 0 512 512" style="enable-background:new 0 0 512 512;" xml:space="preserve">
<style type="text/css">
	.st0{fill:#D3A06C;stroke:#000000;stroke-width:3;stroke-miterlimit:10;}
	.st1{fill:#88BF40;stroke:#000000;stroke-width:3;stroke-miterlimit:10;}
	.st2{fill:#344151;stroke:#000000;stroke-width:3;stroke-miterlimit:10;}
	.st3{fill:#B27946;stroke:#000000;stroke-width:3;stroke-miterlimit:10;}
	.st4{fill:#F0D0B4;stroke:#000000;stroke-width:3;stroke-miterlimit:10;}
	.st5{fill:#FFD13F;stroke:#000000;stroke-width:3;stroke-miterlimit:10;}
	.st6{fill:#969FAA;stroke:#000000;stroke-width:3;stroke-miterlimit:10;}
	.st7{fill:#0093BA;stroke:#000000;stroke-width:3;stroke-miterlimit:10;}
	.st8{fill:#3BAFDA;stroke:#000000;stroke-width:3;stroke-miterlimit:10;}
	.st9{fill:#E6E9ED;stroke:#000000;stroke-width:3;stroke-miterlimit:10;}
</style>
<g>
	<g>
		<g>
			<path class="st0" d="M160,336v16c0,17.7,14.3,32,32,32v32h-32h-48H64H40l3.4-40.3L48,320h112V336z"/>
		</g>
		<g>
			<path class="st1" d="M48,280H16v-61c0-17.7,9.5-33.3,24-41.6c5.6-3.2,11.9-5.4,18.7-6.1L88,168l6.9,24l7,24.3
				c1.3,4.6,5.4,7.7,10.2,7.7s8.9-3.1,10.2-7.7l7-24.3l6.9-24l29.3,3.3c6.8,0.7,13.1,2.9,18.7,6.1c-14.5,8.3-24,23.9-24,41.6v101H48
				L48,280z"/>
		</g>
		<g>
			<path class="st2" d="M184,96v81.4c-5.6-3.2-11.9-5.4-18.7-6.1L136,168l-7-27.8c13.6-6.4,23-20.2,23-36.2V88c0-13.3-10.7-24-24-24
				H96c-13.3,0-24,10.7-24,24v16c0,16,9.4,29.8,23,36.2L88,168l-29.3,3.3c-6.8,0.7-13.1,2.9-18.7,6.1v-106c0-10.1,2.7-19.9,7.9-28.5
				c10-16.7,28-26.9,47.4-26.9h33.3c9.8,0,19,2.6,27.3,7.2c8.2,4.6,15.1,11.4,20.2,19.7c5.2,8.6,7.9,18.4,7.9,28.5V96z"/>
		</g>
		<g>
			<path class="st3" d="M328,41.4c0,14.5-5.8,28.4-16,38.6h-16v-8c0-4.4-3.6-8-8-8h-64c-4.4,0-8,3.6-8,8v8h-16
				c-3.8,0-7.4,1.4-10.2,3.7l-1-2.1c-3.2-6.3-4.8-13.3-4.8-20.3c0-12.5,5.1-23.8,13.3-32s19.5-13.3,32-13.3H320c4.4,0,8,3.6,8,8
				V41.4z"/>
		</g>
		<g>
			<path class="st4" d="M112,416h48v80h-48V416z"/>
		</g>
		<g>
			<path class="st4" d="M64,416h48v80H64V416z"/>
		</g>
		<g>
			<path class="st0" d="M400,496h-80V376c17.7,0,32-14.3,32-32v-8v-16h112v56v120H400z"/>
		</g>
		<g>
			<path class="st5" d="M496,219v61h-32v40H352V219c0-17.7-9.5-33.3-24-41.6c5.6-3.2,11.9-5.4,18.7-6.1L376,168c0,6.6,2.7,12.6,7,17
				s10.3,7,17,7s12.6-2.7,17-7s7-10.3,7-17l29.3,3.3C477.6,173.9,496,194.5,496,219L496,219z"/>
		</g>
		<g>
			<path class="st6" d="M256,496h-64v-80v-32v-48h64h64v40v120H256z"/>
		</g>
		<g>
			<path class="st7" d="M352,219v101v16h-32h-64V184l24,24l22.5-37.5l6.8,0.8c6.8,0.7,13.1,2.9,18.7,6.1
				C342.5,185.7,352,201.3,352,219L352,219z"/>
		</g>
		<g>
			<path class="st7" d="M192,336h-32v-16V219c0-17.7,9.5-33.3,24-41.6c5.6-3.2,11.9-5.4,18.7-6.1l6.8-0.8L232,208l24-24v152H192z"/>
		</g>
		<g>
			<path class="st8" d="M280,168l22.5,2.5L280,208l-24-24L280,168z"/>
		</g>
		<g>
			<path class="st8" d="M256,184l-24,24l-22.5-37.5L232,168L256,184z"/>
		</g>
		<g>
			<path class="st9" d="M129.1,192l-7,24.3c-1.3,4.6-5.4,7.7-10.2,7.7s-8.9-3.1-10.2-7.7l-7-24.3H129.1z"/>
		</g>
		<g>
			<path class="st4" d="M48,280v40l-4.6,55.7C27.9,373.4,16,360.1,16,344v-64H48z"/>
		</g>
		<g>
			<path class="st4" d="M129,140.2l7,27.8l-6.9,24H94.9L88,168l7-27.8c5.2,2.5,11,3.8,17,3.8S123.8,142.6,129,140.2z"/>
		</g>
		<g>
			<path class="st4" d="M152,88v16c0,16-9.4,29.8-23,36.2c-5.2,2.5-11,3.8-17,3.8s-11.8-1.4-17-3.8C81.4,133.8,72,120,72,104V88
				c0-13.3,10.7-24,24-24h32C141.3,64,152,74.7,152,88z"/>
		</g>
		<g>
			<path class="st4" d="M296,80v24c0,2.7-0.2,5.4-0.8,8c-2.6,12.5-10.9,22.9-22.2,28.2c-5.2,2.5-11,3.8-17,3.8s-11.8-1.4-17-3.8
				c-11.3-5.3-19.6-15.7-22.2-28.2c-0.6-2.6-0.8-5.3-0.8-8V80v-8c0-4.4,3.6-8,8-8h64c4.4,0,8,3.6,8,8V80z"/>
		</g>
		<g>
			<path class="st4" d="M312,80c8.8,0,16,7.2,16,16c0,4.4-1.8,8.4-4.7,11.3c-2.9,3-6.9,4.7-11.3,4.7h-16.8c0.6-2.6,0.8-5.3,0.8-8V80
				H312z"/>
		</g>
		<g>
			<path class="st4" d="M216.8,112H200c-4.4,0-8.4-1.8-11.3-4.7c-3-2.9-4.7-6.9-4.7-11.3c0-5,2.2-9.4,5.8-12.3
				c2.8-2.3,6.3-3.7,10.2-3.7h16v24C216,106.7,216.2,109.4,216.8,112z"/>
		</g>
		<g>
			<path class="st4" d="M273,140.2l7,27.8l-24,16l-24-16l7-27.8c5.2,2.5,11,3.8,17,3.8S267.8,142.6,273,140.2z"/>
		</g>
		<g>
			<path class="st4" d="M192,336v48c-17.7,0-32-14.3-32-32v-16H192z"/>
		</g>
		<g>
			<path class="st4" d="M352,336v8c0,17.7-14.3,32-32,32v-40H352z"/>
		</g>
		<g>
			<path class="st4" d="M496,280v64c0,17.7-14.3,32-32,32v-56v-40H496z"/>
		</g>
		<g>
			<path class="st4" d="M456,80c8.8,0,16,7.2,16,16c0,4.4-1.8,8.4-4.7,11.3c-2.9,3-6.9,4.7-11.3,4.7h-16.8c0.6-2.6,0.8-5.3,0.8-8V80
				H456z"/>
		</g>
		<g>
			<path class="st4" d="M417,140.2l7,27.8c0,6.6-2.7,12.6-7,17s-10.3,7-17,7s-12.6-2.7-17-7s-7-10.3-7-17l7-27.8
				c5.2,2.5,11,3.8,17,3.8S411.8,142.6,417,140.2z"/>
		</g>
		<g>
			<path class="st4" d="M440,80v24c0,2.7-0.2,5.4-0.8,8c-2.6,12.5-10.9,22.9-22.2,28.2c-5.2,2.5-11,3.8-17,3.8s-11.8-1.4-17-3.8
				c-11.3-5.3-19.6-15.7-22.2-28.2c-0.6-2.6-0.8-5.3-0.8-8V80v-8c0-22.1,17.9-40,40-40c11,0,21,4.5,28.3,11.7
				C435.5,51,440,61,440,72V80z"/>
		</g>
		<g>
			<path class="st4" d="M360.8,112H344c-4.4,0-8.4-1.8-11.3-4.7c-3-2.9-4.7-6.9-4.7-11.3c0-8.8,7.2-16,16-16h16v24
				C360,106.7,360.2,109.4,360.8,112z"/>
		</g>
	</g>
</g>
</svg>
